<svg version="1.1" viewBox="0.0 0.0 192.0 48.0" fill="none" stroke="none" stroke-linecap="square" stroke-miterlimit="10" xmlns:xlink="http://www.w3.org/1999/xlink" xmlns="http://www.w3.org/2000/svg"><clipPath id="p.0"><path d="m0 0l192.0 0l0 48.0l-192.0 0l0 -48.0z" clip-rule="nonzero"/></clipPath><g clip-path="url(#p.0)"><path fill="#282a36" d="m0 0l192.0 0l0 48.0l-192.0 0z" fill-rule="evenodd"/><path fill="#000000" fill-opacity="0.0" d="m-2.2206724 -0.7401575l192.0 0l0 52.787403l-192.0 0z" fill-rule="evenodd"/><path fill="#ff79c6" d="m11.8906555 26.300465q0 1.8125 0.328125 3.34375q0.34375 1.53125 1.015625 2.9375q0.6875 1.40625 1.734375 2.734375q1.046875 1.328125 2.5 2.734375l-4.046875 4.359375q-1.796875 -1.421875 -3.28125 -3.0625q-1.46875 -1.640625 -2.53125 -3.59375q-1.0625 -1.953125 -1.65625 -4.28125q-0.578125 -2.34375 -0.578125 -5.171875q0 -2.828125 0.578125 -5.15625q0.59375 -2.34375 1.65625 -4.296875q1.0625 -1.953124 2.53125 -3.578124q1.484375 -1.640625 3.28125 -3.078125l4.046875 4.34375q-1.453125 1.40625 -2.5 2.734374q-1.046875 1.328125 -1.734375 2.734375q-0.671875 1.40625 -1.015625 2.953125q-0.328125 1.53125 -0.328125 3.34375zm18.320312 0q0 -1.8125 -0.328125 -3.34375q-0.328125 -1.546875 -1.015625 -2.953125q-0.6875 -1.40625 -1.734375 -2.734375q-1.03125 -1.328124 -2.484375 -2.734374l2.4375 -2.625l0 -0.046875l1.609375 -1.671875q1.78125 1.34375 3.203125 2.984375q1.078125 1.203125 1.953125 2.578125q0.875 1.359374 1.5 2.921874q0.625 1.546875 0.984375 3.328125q0.359375 1.78125 0.40625 3.8125l0 0.484375q0 2.140625 -0.34375 4.0q-0.34375 1.859375 -0.96875 3.46875q-0.625 1.609375 -1.53125 3.015625q-0.890625 1.390625 -2.0 2.640625q-0.671875 0.75 -1.390625 1.421875q-0.703125 0.671875 -1.4375 1.296875q-0.109375 0.0625 -0.203125 0.109375q-0.078125 0.0625 -0.171875 0.15625l-1.609375 -1.671875l0 -0.046875l-2.4375 -2.640625q1.453125 -1.40625 2.484375 -2.734375q1.046875 -1.328125 1.734375 -2.734375q0.6875 -1.40625 1.015625 -2.9375q0.328125 -1.53125 0.328125 -3.34375z" fill-rule="nonzero"/><path fill="#f1fa8c" d="m42.328156 29.456715l0 -6.40625l16.015625 0l0 6.40625l-16.015625 0z" fill-rule="nonzero"/><path fill="#50fa7b" d="m65.74222 42.019215l0 -31.4375l13.328125 0l0 5.265625l-6.90625 0l0 20.875l6.90625 0l0 5.296875l-13.328125 0zm16.914062 0l0 -5.296875l6.875 0l0 -20.875l-6.875 0l0 -5.265625l13.328125 0l0 31.4375l-13.328125 0z" fill-rule="nonzero"/><path fill="#f1fa8c" d="m103.38284 29.456715l0 -6.40625l16.015625 0l0 6.40625l-16.015625 0zm21.773438 7.921875l0 -6.234375l11.796875 -4.84375l-11.796875 -4.890625l0 -6.218749l20.234375 8.984374l0 4.25l-20.234375 8.953125z" fill-rule="nonzero"/><path fill="#ff79c6" d="m157.33987 26.300465q0 1.8125 0.328125 3.34375q0.34375 1.53125 1.015625 2.9375q0.6875 1.40625 1.734375 2.734375q1.046875 1.328125 2.5 2.734375l-4.046875 4.359375q-1.796875 -1.421875 -3.28125 -3.0625q-1.46875 -1.640625 -2.53125 -3.59375q-1.0625 -1.953125 -1.65625 -4.28125q-0.578125 -2.34375 -0.578125 -5.171875q0 -2.828125 0.578125 -5.15625q0.59375 -2.34375 1.65625 -4.296875q1.0625 -1.953124 2.53125 -3.578124q1.484375 -1.640625 3.28125 -3.078125l4.046875 4.34375q-1.453125 1.40625 -2.5 2.734374q-1.046875 1.328125 -1.734375 2.734375q-0.671875 1.40625 -1.015625 2.953125q-0.328125 1.53125 -0.328125 3.34375zm18.320312 0q0 -1.8125 -0.328125 -3.34375q-0.328125 -1.546875 -1.015625 -2.953125q-0.6875 -1.40625 -1.734375 -2.734375q-1.03125 -1.328124 -2.484375 -2.734374l2.4375 -2.625l0 -0.046875l1.609375 -1.671875q1.78125 1.34375 3.203125 2.984375q1.078125 1.203125 1.953125 2.578125q0.875 1.359374 1.5 2.921874q0.625 1.546875 0.984375 3.328125q0.359375 1.78125 0.40625 3.8125l0 0.484375q0 2.140625 -0.34375 4.0q-0.34375 1.859375 -0.96875 3.46875q-0.625 1.609375 -1.53125 3.015625q-0.890625 1.390625 -2.0 2.640625q-0.671875 0.75 -1.390625 1.421875q-0.703125 0.671875 -1.4375 1.296875q-0.109375 0.0625 -0.203125 0.109375q-0.078125 0.0625 -0.171875 0.15625l-1.609375 -1.671875l0 -0.046875l-2.4375 -2.640625q1.453125 -1.40625 2.484375 -2.734375q1.046875 -1.328125 1.734375 -2.734375q0.6875 -1.40625 1.015625 -2.9375q0.328125 -1.53125 0.328125 -3.34375z" fill-rule="nonzero"/></g></svg>